<svg width="2484" height="1600" xmlns="http://www.w3.org/2000/svg" xmlns:xlink="http://www.w3.org/1999/xlink" xml:space="preserve" overflow="hidden"><g transform="translate(-935 -215)"><g><text fill="#000000" fill-opacity="1" font-family="Aptos,Aptos_MSFontService,sans-serif" font-style="normal" font-variant="normal" font-weight="400" font-stretch="normal" font-size="64" text-anchor="start" direction="ltr" writing-mode="lr-tb" unicode-bidi="normal" text-decoration="none" transform="matrix(1 0 0 1 2091.63 303)">Input</text><rect x="1000.5" y="542.5" width="573" height="130" stroke="#042433" stroke-width="6.875" stroke-linecap="butt" stroke-linejoin="miter" stroke-miterlimit="8" stroke-opacity="1" fill="none"/><text fill="#000000" fill-opacity="1" font-family="Aptos,Aptos_MSFontService,sans-serif" font-style="normal" font-variant="normal" font-weight="400" font-stretch="normal" font-size="64" text-anchor="start" direction="ltr" writing-mode="lr-tb" unicode-bidi="normal" text-decoration="none" transform="matrix(1 0 0 1 1043.74 627)">Random subset 1</text><rect x="1748.5" y="538.5" width="573" height="130" stroke="#042433" stroke-width="6.875" stroke-linecap="butt" stroke-linejoin="miter" stroke-miterlimit="8" stroke-opacity="1" fill="none"/><text fill="#000000" fill-opacity="1" font-family="Aptos,Aptos_MSFontService,sans-serif" font-style="normal" font-variant="normal" font-weight="400" font-stretch="normal" font-size="64" text-anchor="start" direction="ltr" writing-mode="lr-tb" unicode-bidi="normal" text-decoration="none" transform="matrix(1 0 0 1 1792.27 624)">Random subset 2</text><path d="M0 0 262.022 0.000360892" stroke="#000000" stroke-width="27.5" stroke-linecap="butt" stroke-linejoin="miter" stroke-miterlimit="8" stroke-dasharray="27.5 27.5" stroke-opacity="1" fill="none" fill-rule="evenodd" transform="matrix(-1 0 0 1 2672.02 603)"/><rect x="2754.5" y="542.5" width="639" height="130" stroke="#042433" stroke-width="6.875" stroke-linecap="butt" stroke-linejoin="miter" stroke-miterlimit="8" stroke-opacity="1" fill="none"/><text fill="#000000" fill-opacity="1" font-family="Aptos,Aptos_MSFontService,sans-serif" font-style="normal" font-variant="normal" font-weight="400" font-stretch="normal" font-size="64" text-anchor="start" direction="ltr" writing-mode="lr-tb" unicode-bidi="normal" text-decoration="none" transform="matrix(1 0 0 1 2796.13 627)">Random subset 100</text><path d="M1254 751.5C1254 733.551 1268.55 719 1286.5 719 1304.45 719 1319 733.551 1319 751.5 1319 769.449 1304.45 784 1286.5 784 1268.55 784 1254 769.449 1254 751.5Z" stroke="#000000" stroke-width="13.75" stroke-linecap="butt" stroke-linejoin="miter" stroke-miterlimit="8" stroke-opacity="1" fill="none" fill-rule="evenodd"/><path d="M0 0 52.1074 72.9428" stroke="#000000" stroke-width="6.875" stroke-linecap="butt" stroke-linejoin="miter" stroke-miterlimit="8" stroke-opacity="1" fill="none" fill-rule="evenodd" transform="matrix(-1 0 0 1 1263.61 774.5)"/><path d="M1309.5 774.5 1361.61 847.443" stroke="#000000" stroke-width="6.875" stroke-linecap="butt" stroke-linejoin="miter" stroke-miterlimit="8" stroke-opacity="1" fill="none" fill-rule="evenodd"/><path d="M1172 879.5C1172 861.551 1186.55 847 1204.5 847 1222.45 847 1237 861.551 1237 879.5 1237 897.449 1222.45 912 1204.5 912 1186.55 912 1172 897.449 1172 879.5Z" stroke="#042433" stroke-width="13.75" stroke-linecap="butt" stroke-linejoin="miter" stroke-miterlimit="8" stroke-opacity="1" fill="none" fill-rule="evenodd"/><path d="M1334.5 880C1334.5 862.051 1349.05 847.5 1367 847.5 1384.95 847.5 1399.5 862.051 1399.5 880 1399.5 897.949 1384.95 912.5 1367 912.5 1349.05 912.5 1334.5 897.949 1334.5 880Z" stroke="#042433" stroke-width="6.875" stroke-linecap="butt" stroke-linejoin="miter" stroke-miterlimit="8" stroke-opacity="1" fill="none" fill-rule="evenodd"/><path d="M1228.5 903.5 1277.45 957.038" stroke="#000000" stroke-width="6.875" stroke-linecap="butt" stroke-linejoin="miter" stroke-miterlimit="8" stroke-opacity="1" fill="none" fill-rule="evenodd"/><path d="M0 0 45.0686 53.5377" stroke="#000000" stroke-width="6.875" stroke-linecap="butt" stroke-linejoin="miter" stroke-miterlimit="8" stroke-opacity="1" fill="none" fill-rule="evenodd" transform="matrix(-1 0 0 1 1182.57 903.5)"/><path d="M1267 979.5C1267 961.551 1281.55 947 1299.5 947 1317.45 947 1332 961.551 1332 979.5 1332 997.449 1317.45 1012 1299.5 1012 1281.55 1012 1267 997.449 1267 979.5Z" stroke="#042433" stroke-width="13.75" stroke-linecap="butt" stroke-linejoin="miter" stroke-miterlimit="8" stroke-opacity="1" fill="none" fill-rule="evenodd"/><path d="M1081.5 980C1081.5 962.051 1096.05 947.5 1114 947.5 1131.95 947.5 1146.5 962.051 1146.5 980 1146.5 997.949 1131.95 1012.5 1114 1012.5 1096.05 1012.5 1081.5 997.949 1081.5 980Z" stroke="#042433" stroke-width="6.875" stroke-linecap="butt" stroke-linejoin="miter" stroke-miterlimit="8" stroke-opacity="1" fill="none" fill-rule="evenodd"/><path d="M2018 751.5C2018 733.551 2032.55 719 2050.5 719 2068.45 719 2083 733.551 2083 751.5 2083 769.449 2068.45 784 2050.5 784 2032.55 784 2018 769.449 2018 751.5Z" stroke="#000000" stroke-width="13.75" stroke-linecap="butt" stroke-linejoin="miter" stroke-miterlimit="8" stroke-opacity="1" fill="none" fill-rule="evenodd"/><path d="M0 0 52.1074 72.9428" stroke="#000000" stroke-width="6.875" stroke-linecap="butt" stroke-linejoin="miter" stroke-miterlimit="8" stroke-opacity="1" fill="none" fill-rule="evenodd" transform="matrix(-1 0 0 1 2027.61 774.5)"/><path d="M2073.5 774.5 2125.61 847.443" stroke="#000000" stroke-width="6.875" stroke-linecap="butt" stroke-linejoin="miter" stroke-miterlimit="8" stroke-opacity="1" fill="none" fill-rule="evenodd"/><path d="M1936.5 880C1936.5 862.051 1951.05 847.5 1969 847.5 1986.95 847.5 2001.5 862.051 2001.5 880 2001.5 897.949 1986.95 912.5 1969 912.5 1951.05 912.5 1936.5 897.949 1936.5 880Z" stroke="#042433" stroke-width="6.875" stroke-linecap="butt" stroke-linejoin="miter" stroke-miterlimit="8" stroke-opacity="1" fill="none" fill-rule="evenodd"/><path d="M2098 879.5C2098 861.551 2112.55 847 2130.5 847 2148.45 847 2163 861.551 2163 879.5 2163 897.449 2148.45 912 2130.5 912 2112.55 912 2098 897.449 2098 879.5Z" stroke="#042433" stroke-width="13.75" stroke-linecap="butt" stroke-linejoin="miter" stroke-miterlimit="8" stroke-opacity="1" fill="none" fill-rule="evenodd"/><path d="M1992.5 903.5 2041.45 957.038" stroke="#000000" stroke-width="6.875" stroke-linecap="butt" stroke-linejoin="miter" stroke-miterlimit="8" stroke-opacity="1" fill="none" fill-rule="evenodd"/><path d="M0 0 45.0686 53.5377" stroke="#000000" stroke-width="6.875" stroke-linecap="butt" stroke-linejoin="miter" stroke-miterlimit="8" stroke-opacity="1" fill="none" fill-rule="evenodd" transform="matrix(-1 0 0 1 1946.57 903.5)"/><path d="M2031.5 980C2031.5 962.051 2046.05 947.5 2064 947.5 2081.95 947.5 2096.5 962.051 2096.5 980 2096.5 997.949 2081.95 1012.5 2064 1012.5 2046.05 1012.5 2031.5 997.949 2031.5 980Z" stroke="#042433" stroke-width="6.875" stroke-linecap="butt" stroke-linejoin="miter" stroke-miterlimit="8" stroke-opacity="1" fill="none" fill-rule="evenodd"/><path d="M1845.5 980C1845.5 962.051 1860.05 947.5 1878 947.5 1895.95 947.5 1910.5 962.051 1910.5 980 1910.5 997.949 1895.95 1012.5 1878 1012.5 1860.05 1012.5 1845.5 997.949 1845.5 980Z" stroke="#042433" stroke-width="6.875" stroke-linecap="butt" stroke-linejoin="miter" stroke-miterlimit="8" stroke-opacity="1" fill="none" fill-rule="evenodd"/><path d="M3055 783.5C3055 765.551 3069.55 751 3087.5 751 3105.45 751 3120 765.551 3120 783.5 3120 801.449 3105.45 816 3087.5 816 3069.55 816 3055 801.449 3055 783.5Z" stroke="#000000" stroke-width="13.75" stroke-linecap="butt" stroke-linejoin="miter" stroke-miterlimit="8" stroke-opacity="1" fill="none" fill-rule="evenodd"/><path d="M0 0 52.1074 72.9428" stroke="#000000" stroke-width="6.875" stroke-linecap="butt" stroke-linejoin="miter" stroke-miterlimit="8" stroke-opacity="1" fill="none" fill-rule="evenodd" transform="matrix(-1 0 0 1 3064.61 807.5)"/><path d="M3110.5 807.5 3162.61 880.443" stroke="#000000" stroke-width="6.875" stroke-linecap="butt" stroke-linejoin="miter" stroke-miterlimit="8" stroke-opacity="1" fill="none" fill-rule="evenodd"/><path d="M2973 912.5C2973 894.551 2987.55 880 3005.5 880 3023.45 880 3038 894.551 3038 912.5 3038 930.449 3023.45 945 3005.5 945 2987.55 945 2973 930.449 2973 912.5Z" stroke="#042433" stroke-width="13.75" stroke-linecap="butt" stroke-linejoin="miter" stroke-miterlimit="8" stroke-opacity="1" fill="none" fill-rule="evenodd"/><path d="M3135.5 913C3135.5 895.051 3150.05 880.5 3168 880.5 3185.95 880.5 3200.5 895.051 3200.5 913 3200.5 930.949 3185.95 945.5 3168 945.5 3150.05 945.5 3135.5 930.949 3135.5 913Z" stroke="#042433" stroke-width="6.875" stroke-linecap="butt" stroke-linejoin="miter" stroke-miterlimit="8" stroke-opacity="1" fill="none" fill-rule="evenodd"/><path d="M3029.5 935.5 3078.45 989.037" stroke="#000000" stroke-width="6.875" stroke-linecap="butt" stroke-linejoin="miter" stroke-miterlimit="8" stroke-opacity="1" fill="none" fill-rule="evenodd"/><path d="M0 0 45.0686 53.5377" stroke="#000000" stroke-width="6.875" stroke-linecap="butt" stroke-linejoin="miter" stroke-miterlimit="8" stroke-opacity="1" fill="none" fill-rule="evenodd" transform="matrix(-1 0 0 1 2983.57 935.5)"/><path d="M3068.5 1012C3068.5 994.051 3083.05 979.5 3101 979.5 3118.95 979.5 3133.5 994.051 3133.5 1012 3133.5 1029.95 3118.95 1044.5 3101 1044.5 3083.05 1044.5 3068.5 1029.95 3068.5 1012Z" stroke="#042433" stroke-width="6.875" stroke-linecap="butt" stroke-linejoin="miter" stroke-miterlimit="8" stroke-opacity="1" fill="none" fill-rule="evenodd"/><path d="M2882 1011.5C2882 993.551 2896.55 979 2914.5 979 2932.45 979 2947 993.551 2947 1011.5 2947 1029.45 2932.45 1044 2914.5 1044 2896.55 1044 2882 1029.45 2882 1011.5Z" stroke="#042433" stroke-width="13.75" stroke-linecap="butt" stroke-linejoin="miter" stroke-miterlimit="8" stroke-opacity="1" fill="none" fill-rule="evenodd"/><rect x="938.5" y="1097.5" width="688" height="130" stroke="#042433" stroke-width="6.875" stroke-linecap="butt" stroke-linejoin="miter" stroke-miterlimit="8" stroke-opacity="1" fill="none"/><text fill="#000000" fill-opacity="1" font-family="Aptos,Aptos_MSFontService,sans-serif" font-style="normal" font-variant="normal" font-weight="400" font-stretch="normal" font-size="64" text-anchor="start" direction="ltr" writing-mode="lr-tb" unicode-bidi="normal" text-decoration="none" transform="matrix(1 0 0 1 992.889 1182)">High</text><text fill="#000000" fill-opacity="1" font-family="Aptos,Aptos_MSFontService,sans-serif" font-style="normal" font-variant="normal" font-weight="400" font-stretch="normal" font-size="64" text-anchor="start" direction="ltr" writing-mode="lr-tb" unicode-bidi="normal" text-decoration="none" transform="matrix(1 0 0 1 1120.08 1182)">-</text><text fill="#000000" fill-opacity="1" font-family="Aptos,Aptos_MSFontService,sans-serif" font-style="normal" font-variant="normal" font-weight="400" font-stretch="normal" font-size="64" text-anchor="start" direction="ltr" writing-mode="lr-tb" unicode-bidi="normal" text-decoration="none" transform="matrix(1 0 0 1 1141.85 1182)">delay: yes or no</text><rect x="1686.5" y="1097.5" width="689" height="130" stroke="#042433" stroke-width="6.875" stroke-linecap="butt" stroke-linejoin="miter" stroke-miterlimit="8" stroke-opacity="1" fill="none"/><text fill="#000000" fill-opacity="1" font-family="Aptos,Aptos_MSFontService,sans-serif" font-style="normal" font-variant="normal" font-weight="400" font-stretch="normal" font-size="64" text-anchor="start" direction="ltr" writing-mode="lr-tb" unicode-bidi="normal" text-decoration="none" transform="matrix(1 0 0 1 1741.42 1182)">High</text><text fill="#000000" fill-opacity="1" font-family="Aptos,Aptos_MSFontService,sans-serif" font-style="normal" font-variant="normal" font-weight="400" font-stretch="normal" font-size="64" text-anchor="start" direction="ltr" writing-mode="lr-tb" unicode-bidi="normal" text-decoration="none" transform="matrix(1 0 0 1 1868.61 1182)">-</text><text fill="#000000" fill-opacity="1" font-family="Aptos,Aptos_MSFontService,sans-serif" font-style="normal" font-variant="normal" font-weight="400" font-stretch="normal" font-size="64" text-anchor="start" direction="ltr" writing-mode="lr-tb" unicode-bidi="normal" text-decoration="none" transform="matrix(1 0 0 1 1890.38 1182)">delay: yes or no</text><rect x="2725.5" y="1095.5" width="688" height="130" stroke="#042433" stroke-width="6.875" stroke-linecap="butt" stroke-linejoin="miter" stroke-miterlimit="8" stroke-opacity="1" fill="none"/><text fill="#000000" fill-opacity="1" font-family="Aptos,Aptos_MSFontService,sans-serif" font-style="normal" font-variant="normal" font-weight="400" font-stretch="normal" font-size="64" text-anchor="start" direction="ltr" writing-mode="lr-tb" unicode-bidi="normal" text-decoration="none" transform="matrix(1 0 0 1 2779.65 1181)">High</text><text fill="#000000" fill-opacity="1" font-family="Aptos,Aptos_MSFontService,sans-serif" font-style="normal" font-variant="normal" font-weight="400" font-stretch="normal" font-size="64" text-anchor="start" direction="ltr" writing-mode="lr-tb" unicode-bidi="normal" text-decoration="none" transform="matrix(1 0 0 1 2906.84 1181)">-</text><text fill="#000000" fill-opacity="1" font-family="Aptos,Aptos_MSFontService,sans-serif" font-style="normal" font-variant="normal" font-weight="400" font-stretch="normal" font-size="64" text-anchor="start" direction="ltr" writing-mode="lr-tb" unicode-bidi="normal" text-decoration="none" transform="matrix(1 0 0 1 2928.61 1181)">delay: yes or no</text><path d="M2167.78 347.5 2167.78 447.996 1286.5 447.996 1289.94 444.558 1289.94 518.699 1283.06 518.699 1283.06 441.121 2164.34 441.121 2160.9 444.558 2160.9 347.5ZM1300.25 514.115 1286.5 541.615 1272.75 514.115Z" fill="#000000" fill-rule="nonzero" fill-opacity="1"/><path d="M0-3.4375 100.497-3.4375 100.497 908.922 97.0595 905.485 171.198 905.485 171.198 912.36 93.622 912.36 93.622 0 97.0595 3.4375 0 3.4375ZM166.615 895.172 194.115 908.922 166.615 922.672Z" fill="#000000" fill-rule="nonzero" fill-opacity="1" transform="matrix(1.83697e-16 1 1 -1.83697e-16 2164.5 347.5)"/><path d="M2168.25 347.5 2168.25 448.556 2035.5 448.556 2038.94 445.119 2038.94 515.237 2032.06 515.237 2032.06 441.681 2164.81 441.681 2161.37 445.119 2161.37 347.5ZM2049.25 510.654 2035.5 538.154 2021.75 510.654Z" fill="#000000" fill-rule="nonzero" fill-opacity="1"/><path d="M0-3.4375 165.533-3.4375 165.533 527.36 158.658 527.36 158.658 0 162.096 3.4375 0 3.4375ZM175.846 522.777 162.096 550.277 148.346 522.777Z" fill="#000000" fill-rule="nonzero" fill-opacity="1" transform="matrix(1.83697e-16 1 1 -1.83697e-16 1282.5 1227.5)"/><path d="M0-3.4375 52.0051-3.4375 52.0051 132.729 48.5676 129.291 74.2186 129.291 74.2186 136.166 45.1301 136.166 45.1301 0 48.5676 3.4375 0 3.4375ZM69.6353 118.979 97.1353 132.729 69.6353 146.479Z" fill="#000000" fill-rule="nonzero" fill-opacity="1" transform="matrix(1.83697e-16 1 1 -1.83697e-16 2030.5 1227.5)"/><path d="M3072.46 1225.5 3072.46 1392.68 2517.42 1392.68 2517.42 1385.81 3069.03 1385.81 3065.59 1389.24 3065.59 1225.5ZM2522 1402.99 2494.5 1389.24 2522 1375.49Z" fill="#000000" fill-rule="nonzero" fill-opacity="1"/><path d="M3.4375-1.55411e-05 3.43776 56.908-3.43724 56.9081-3.4375 1.55411e-05ZM13.7502 52.3246 0.000360892 79.8247-13.7498 52.3248Z" fill="#000000" fill-rule="nonzero" fill-opacity="1" transform="matrix(-1 0 0 1 2163.5 1454.5)"/><rect x="1832.5" y="1324.5" width="662" height="130" stroke="#042433" stroke-width="6.875" stroke-linecap="butt" stroke-linejoin="miter" stroke-miterlimit="8" stroke-opacity="1" fill="none"/><text fill="#000000" fill-opacity="1" font-family="Aptos,Aptos_MSFontService,sans-serif" font-style="normal" font-variant="normal" font-weight="400" font-stretch="normal" font-size="64" text-anchor="start" direction="ltr" writing-mode="lr-tb" unicode-bidi="normal" text-decoration="none" transform="matrix(1 0 0 1 1866.74 1409)">Weighted summation</text><text fill="#000000" fill-opacity="1" font-family="Aptos,Aptos_MSFontService,sans-serif" font-style="normal" font-variant="normal" font-weight="400" font-stretch="normal" font-size="64" text-anchor="start" direction="ltr" writing-mode="lr-tb" unicode-bidi="normal" text-decoration="none" transform="matrix(1 0 0 1 1903.49 1602)">Final prediction for </text><text fill="#000000" fill-opacity="1" font-family="Aptos,Aptos_MSFontService,sans-serif" font-style="normal" font-variant="normal" font-weight="400" font-stretch="normal" font-size="64" text-anchor="start" direction="ltr" writing-mode="lr-tb" unicode-bidi="normal" text-decoration="none" transform="matrix(1 0 0 1 1911.65 1679)">high</text><text fill="#000000" fill-opacity="1" font-family="Aptos,Aptos_MSFontService,sans-serif" font-style="normal" font-variant="normal" font-weight="400" font-stretch="normal" font-size="64" text-anchor="start" direction="ltr" writing-mode="lr-tb" unicode-bidi="normal" text-decoration="none" transform="matrix(1 0 0 1 2029.1 1679)">-</text><text fill="#000000" fill-opacity="1" font-family="Aptos,Aptos_MSFontService,sans-serif" font-style="normal" font-variant="normal" font-weight="400" font-stretch="normal" font-size="64" text-anchor="start" direction="ltr" writing-mode="lr-tb" unicode-bidi="normal" text-decoration="none" transform="matrix(1 0 0 1 2050.87 1679)">delay month: </text><text fill="#000000" fill-opacity="1" font-family="Aptos,Aptos_MSFontService,sans-serif" font-style="normal" font-variant="normal" font-weight="400" font-stretch="normal" font-size="64" text-anchor="start" direction="ltr" writing-mode="lr-tb" unicode-bidi="normal" text-decoration="none" transform="matrix(1 0 0 1 2039.41 1756)">yes or no</text><text fill="#000000" fill-opacity="1" font-family="Aptos,Aptos_MSFontService,sans-serif" font-style="normal" font-variant="normal" font-weight="400" font-stretch="normal" font-size="50" text-anchor="start" direction="ltr" writing-mode="lr-tb" unicode-bidi="normal" text-decoration="none" transform="matrix(6.12323e-17 -1 1 6.12323e-17 1037.15 1044)">Decision tree 1</text><text fill="#000000" fill-opacity="1" font-family="Aptos,Aptos_MSFontService,sans-serif" font-style="normal" font-variant="normal" font-weight="400" font-stretch="normal" font-size="50" text-anchor="start" direction="ltr" writing-mode="lr-tb" unicode-bidi="normal" text-decoration="none" transform="matrix(6.12323e-17 -1 1 6.12323e-17 2832.4 1073)">Decision tree 100</text><text fill="#000000" fill-opacity="1" font-family="Aptos,Aptos_MSFontService,sans-serif" font-style="normal" font-variant="normal" font-weight="400" font-stretch="normal" font-size="50" text-anchor="start" direction="ltr" writing-mode="lr-tb" unicode-bidi="normal" text-decoration="none" transform="matrix(6.12323e-17 -1 1 6.12323e-17 1799.02 1044)">Decision tree 2</text></g></g></svg>